<svg version="1.2" xmlns="http://www.w3.org/2000/svg" viewBox="0 0 1280 720" width="300" height="300">
	<title>Proyecto nuevo</title>
	<style>
		.s0 { fill: #f20404 } 
	</style>
	<path id="4 0 4" class="s0" aria-label="4 0 4"  d="m559.9 406.7h-16.8v-17.5h16.8zm0-17.5h-16.8v-18h16.8zm0-17.9h-16.8v-17.9h16.8zm-33.8 35.5h17v17.7h-17zm17 0h-17v-17.5h17zm0-17.5h-17v-18h17zm0-17.9h-17v-17.9h17zm0-17.8h-17v-18h17zm0-17.9h-17v-17.9h17zm0-17.8h-17v-18h17zm0-17.9h-17v-17.9h17zm0-18h-17v-17.5h17zm-17-17.5h-17.2v-17.9h17.2zm-17.2 142.5h17.2v17.6h-17.2zm17.2 0h-17.2v-17.5h17.2zm0-17.5h-17.2v-17.9h17.2zm0-35.8h-17.2v-17.9h17.2zm0-18h-17.2v-17.8h17.2zm0-17.9h-17.2v-17.9h17.2zm0-18h-17.2v-17.9h17.2zm0-18h-17.2v-17.5h17.2zm-17.2-17.4h-17v-18h17zm-17 142.5h17v17.6h-17zm17 0h-17v-17.4h17zm-17-142.5h-17.2v-18h17.2zm-17.2 142.5h17.2v17.7h-17.2zm17.2 0h-17.2v-17.5h17.2zm-17.2-142.5h-17.1v-17.9h17.1zm0 142.4h-17.1v-17.4h17.1zm0-17.5h-17.1v-18h17.1zm0-35.8h-17.1v-17.9h17.1zm0-18h-17.1v-17.8h17.1zm0-53.8h-17.1v-17.4h17.1zm-17.1 124.9h-16.8v-17.5h16.8zm0-17.5h-16.8v-17.9h16.8zm0-35.8h-16.8v-17.9h16.8zm0-53.8h-16.8v-17.9h16.8zm0-18h-16.8v-17.5h16.8zm-16.8 125h-17.1v-17.5h17.1zm0-17.5h-17.1v-17.9h17.1zm0-71.6h-17.1v-18h17.1zm0-17.9h-17.1v-17.9h17.1zm-17.1 107h-17.1v-17.5h17.1zm0-17.5h-17.1v-17.9h17.1zm0-53.8h-17.1v-17.8h17.1zm0-17.9h-17.1v-17.9h17.1zm-17.1 71.6h-17.1v-18h17.1zm0-17.9h-17.1v-17.9h17.1zm0-17.8h-17.1v-18h17.1zm0-17.9h-17.1v-17.9h17.1zm355.5 71.3h-16.8v-17.5h16.8zm0-17.5h-16.8v-18h16.8zm0-17.9h-16.8v-17.9h16.8zm0-17.8h-16.8v-18h16.8zm0-17.9h-16.8v-17.9h16.8zm0-17.8h-16.8v-17.9h16.8zm0-18h-16.8v-17.9h16.8zm-33.8 107h17v17.7h-17zm17 0h-17v-17.5h17zm0-17.5h-17v-18h17zm0-17.9h-17v-17.9h17zm0-17.8h-17v-18h17zm0-17.9h-17v-17.8h17zm0-17.9h-17v-17.9h17zm0-18h-17v-17.9h17zm0-18h-17v-17.5h17zm-17-17.5h-17.2v-17.9h17.2zm-17.2 142.5h17.2v17.6h-17.2zm17.2 0h-17.2v-17.5h17.2zm0-17.5h-17.2v-17.9h17.2zm0-107.5h-17.2v-17.5h17.2zm-17.2-17.5h-17v-17.9h17zm-17 142.5h17v17.6h-17zm17 0h-17v-17.5h17zm-17-142.4h-17.2v-18h17.2zm-17.2 142.5h17.2v17.7h-17.2zm17.2 0h-17.2v-17.5h17.2zm0-35.5h-17.2v-17.8h17.2zm0-17.9h-17.2v-17.9h17.2zm0-17.9h-17.2v-17.9h17.2zm0-35.8h-17.2v-17.9h17.2zm-17.2-35.5h-17.1v-17.9h17.1zm-17.1 142.4h17.1v17.7h-17.1zm17.1 0h-17.1v-17.5h17.1zm0-35.4h-17.1v-17.9h17.1zm0-17.8h-17.1v-18h17.1zm0-35.8h-17.1v-17.9h17.1zm0-17.9h-17.1v-18h17.1zm-17.1-35.4h-16.8v-18h16.8zm-16.8 142.5h16.8v17.7h-16.8zm16.8 0h-16.8v-17.5h16.8zm0-35.5h-16.8v-17.8h16.8zm0-35.8h-16.8v-17.9h16.8zm0-17.8h-16.8v-17.9h16.8zm0-18h-16.8v-17.9h16.8zm-16.8-35.5h-17.1v-17.9h17.1zm-17.1 142.5h17.1v17.6h-17.1zm17.1 0h-17.1v-17.5h17.1zm-17.1-142.4h-17.1v-18h17.1zm0 142.5h-17.1v-17.5h17.1zm0-17.5h-17.1v-17.9h17.1zm0-107.5h-17.1v-17.5h17.1zm-17.1 107.5h-17.1v-18h17.1zm0-17.9h-17.1v-17.9h17.1zm0-17.8h-17.1v-18h17.1zm0-17.9h-17.1v-17.9h17.1zm0-17.8h-17.1v-18h17.1zm0-17.9h-17.1v-17.9h17.1zm0-18h-17.1v-17.5h17.1zm355.5 125h-16.8v-17.5h16.8zm0-17.5h-16.8v-17.9h16.8zm0-18h-16.8v-17.8h16.8zm-33.8 35.4h17v17.7h-17zm17 0h-17v-17.5h17zm0-17.5h-17v-18h17zm0-17.9h-17v-17.9h17zm0-17.8h-17v-17.9h17zm0-18h-17v-17.8h17zm0-17.9h-17v-17.9h17zm0-18h-17v-17.9h17zm0-18h-17v-17.5h17zm-17-17.5h-17.2v-17.9h17.2zm-17.2 142.5h17.2v17.6h-17.2zm17.2 0h-17.2v-17.5h17.2zm0-17.4h-17.2v-18h17.2zm0-35.8h-17.2v-17.9h17.2zm0-18h-17.2v-17.8h17.2zm0-17.9h-17.2v-17.9h17.2zm0-18h-17.2v-17.9h17.2zm0-17.9h-17.2v-17.5h17.2zm-17.2-17.5h-17v-18h17zm-17 142.5h17v17.7h-17zm17 0h-17v-17.5h17zm-17-142.5h-17.2v-17.9h17.2zm-17.2 142.4h17.2v17.7h-17.2zm17.2 0h-17.2v-17.5h17.2zm-17.2-142.5h-17.1v-17.9h17.1zm0 142.5h-17.1v-17.5h17.1zm0-17.5h-17.1v-18h17.1zm0-35.8h-17.1v-17.9h17.1zm0-17.9h-17.1v-17.9h17.1zm0-53.7h-17.1v-17.5h17.1zm-17.1 124.9h-16.8v-17.5h16.8zm0-17.5h-16.8v-17.9h16.8zm0-35.8h-16.8v-17.9h16.8zm0-53.8h-16.8v-17.9h16.8zm0-17.9h-16.8v-17.5h16.8zm-16.8 124.9h-17.1v-17.5h17.1zm0-17.5h-17.1v-17.9h17.1zm0-71.6h-17.1v-17.9h17.1zm0-18h-17.1v-17.9h17.1zm-17.1 107h-17.1v-17.5h17.1zm0-17.5h-17.1v-17.9h17.1zm0-53.8h-17.1v-17.8h17.1zm0-17.9h-17.1v-17.9h17.1zm-17.1 71.6h-17.1v-18h17.1zm0-17.9h-17.1v-17.9h17.1zm0-17.8h-17.1v-18h17.1zm0-17.9h-17.1v-17.9h17.1z"/>
</svg>